<svg width="16" height="16" viewBox="0 0 16 16" fill="none" xmlns="http://www.w3.org/2000/svg">
<g clip-path="url(#clip0_155_628)">
<path d="M7.99995 1C8.4437 1 8.85307 1.23437 9.07807 1.61875L15.8281 13.1187C16.0562 13.5062 16.0562 13.9844 15.8343 14.3719C15.6124 14.7594 15.1968 15 14.7499 15H1.24995C0.80307 15 0.387445 14.7594 0.16557 14.3719C-0.0563048 13.9844 -0.0531798 13.5031 0.17182 13.1187L6.92182 1.61875C7.14682 1.23437 7.5562 1 7.99995 1ZM7.99995 5C7.58432 5 7.24995 5.33437 7.24995 5.75V9.25C7.24995 9.66562 7.58432 10 7.99995 10C8.41557 10 8.74995 9.66562 8.74995 9.25V5.75C8.74995 5.33437 8.41557 5 7.99995 5ZM8.99995 12C8.99995 11.7348 8.89459 11.4804 8.70705 11.2929C8.51952 11.1054 8.26516 11 7.99995 11C7.73473 11 7.48037 11.1054 7.29284 11.2929C7.1053 11.4804 6.99995 11.7348 6.99995 12C6.99995 12.2652 7.1053 12.5196 7.29284 12.7071C7.48037 12.8946 7.73473 13 7.99995 13C8.26516 13 8.51952 12.8946 8.70705 12.7071C8.89459 12.5196 8.99995 12.2652 8.99995 12Z" fill="#DC2626"/>
</g>
<defs>
<clipPath id="clip0_155_628">
<path d="M0 0H16V16H0V0Z" fill="white"/>
</clipPath>
</defs>
</svg>
