<svg width="16" height="16" viewBox="0 0 16 16" fill="none" xmlns="http://www.w3.org/2000/svg">
<g clip-path="url(#clip0_220_141)">
<path d="M0 0H16V16H0V0Z" stroke="#E5E7EB"/>
<path d="M0.75 1C0.334375 1 0 1.33437 0 1.75V14.25C0 14.6656 0.334375 15 0.75 15H1.25C1.66562 15 2 14.6656 2 14.25V1.75C2 1.33437 1.66562 1 1.25 1H0.75ZM3.5 1C3.225 1 3 1.225 3 1.5V14.5C3 14.775 3.225 15 3.5 15C3.775 15 4 14.775 4 14.5V1.5C4 1.225 3.775 1 3.5 1ZM5.75 1C5.33437 1 5 1.33437 5 1.75V14.25C5 14.6656 5.33437 15 5.75 15H6.25C6.66563 15 7 14.6656 7 14.25V1.75C7 1.33437 6.66563 1 6.25 1H5.75ZM8.75 1C8.33438 1 8 1.33437 8 1.75V14.25C8 14.6656 8.33438 15 8.75 15H9.25C9.66562 15 10 14.6656 10 14.25V1.75C10 1.33437 9.66562 1 9.25 1H8.75ZM14 1.75V14.25C14 14.6656 14.3344 15 14.75 15H15.25C15.6656 15 16 14.6656 16 14.25V1.75C16 1.33437 15.6656 1 15.25 1H14.75C14.3344 1 14 1.33437 14 1.75ZM12 1.5V14.5C12 14.775 12.225 15 12.5 15C12.775 15 13 14.775 13 14.5V1.5C13 1.225 12.775 1 12.5 1C12.225 1 12 1.225 12 1.5Z" fill="#9CA3AF"/>
</g>
<defs>
<clipPath id="clip0_220_141">
<rect width="16" height="16" fill="white"/>
</clipPath>
</defs>
</svg>
