<svg width="12" height="16" viewBox="0 0 12 16" fill="none" xmlns="http://www.w3.org/2000/svg">
<g clip-path="url(#clip0_220_39)">
<g clip-path="url(#clip1_220_39)">
<path d="M6 0C4.69375 0 3.58125 0.834375 3.17188 2H2C0.896875 2 0 2.89687 0 4V14C0 15.1031 0.896875 16 2 16H10C11.1031 16 12 15.1031 12 14V4C12 2.89687 11.1031 2 10 2H8.82812C8.41875 0.834375 7.30625 0 6 0ZM6 2C6.26522 2 6.51957 2.10536 6.70711 2.29289C6.89464 2.48043 7 2.73478 7 3C7 3.26522 6.89464 3.51957 6.70711 3.70711C6.51957 3.89464 6.26522 4 6 4C5.73478 4 5.48043 3.89464 5.29289 3.70711C5.10536 3.51957 5 3.26522 5 3C5 2.73478 5.10536 2.48043 5.29289 2.29289C5.48043 2.10536 5.73478 2 6 2ZM4 8C4 7.46957 4.21071 6.96086 4.58579 6.58579C4.96086 6.21071 5.46957 6 6 6C6.53043 6 7.03914 6.21071 7.41421 6.58579C7.78929 6.96086 8 7.46957 8 8C8 8.53043 7.78929 9.03914 7.41421 9.41421C7.03914 9.78929 6.53043 10 6 10C5.46957 10 4.96086 9.78929 4.58579 9.41421C4.21071 9.03914 4 8.53043 4 8ZM2.5 13.5C2.5 12.1187 3.61875 11 5 11H7C8.38125 11 9.5 12.1187 9.5 13.5C9.5 13.775 9.275 14 9 14H3C2.725 14 2.5 13.775 2.5 13.5Z" fill="#4B5563"/>
</g>
</g>
<defs>
<clipPath id="clip0_220_39">
<rect width="12" height="16" fill="white"/>
</clipPath>
<clipPath id="clip1_220_39">
<path d="M0 0H12V16H0V0Z" fill="white"/>
</clipPath>
</defs>
</svg>
