<svg width="15" height="14" viewBox="0 0 15 14" fill="none" xmlns="http://www.w3.org/2000/svg">
<g clip-path="url(#clip0_220_77)">
<path d="M4.12383 1.77188L3.83945 2.625H1.79688C0.831641 2.625 0.046875 3.40977 0.046875 4.375V11.375C0.046875 12.3402 0.831641 13.125 1.79688 13.125H12.2969C13.2621 13.125 14.0469 12.3402 14.0469 11.375V4.375C14.0469 3.40977 13.2621 2.625 12.2969 2.625H10.2543L9.96992 1.77188C9.79219 1.23594 9.2918 0.875 8.72578 0.875H5.36797C4.80195 0.875 4.30156 1.23594 4.12383 1.77188ZM7.04688 5.25C7.74307 5.25 8.41075 5.52656 8.90303 6.01884C9.39531 6.51113 9.67188 7.17881 9.67188 7.875C9.67188 8.57119 9.39531 9.23887 8.90303 9.73116C8.41075 10.2234 7.74307 10.5 7.04688 10.5C6.35068 10.5 5.683 10.2234 5.19072 9.73116C4.69844 9.23887 4.42188 8.57119 4.42188 7.875C4.42188 7.17881 4.69844 6.51113 5.19072 6.01884C5.683 5.52656 6.35068 5.25 7.04688 5.25Z" fill="#4B5563"/>
</g>
<defs>
<clipPath id="clip0_220_77">
<path d="M0.046875 0H14.0469V14H0.046875V0Z" fill="white"/>
</clipPath>
</defs>
</svg>
