<svg width="18" height="16" viewBox="0 0 18 16" fill="none" xmlns="http://www.w3.org/2000/svg">
<g clip-path="url(#clip0_155_640)">
<path d="M4.45 0.684422C4.625 1.20942 4.34062 1.77505 3.81875 1.95005L3 2.22192V6.00005C3 7.6563 4.34375 9.00005 6 9.00005C7.65625 9.00005 9 7.6563 9 6.00005V2.22192L8.18437 1.95005C7.65937 1.77505 7.37812 1.20942 7.55312 0.684422C7.72813 0.159423 8.29375 -0.121827 8.81875 0.0531725L9.63437 0.325047C10.45 0.596923 11 1.35942 11 2.22192V6.00005C11 8.41255 9.29375 10.425 7.02187 10.8969C7.21875 12.6438 8.7 14 10.5 14C12.4344 14 14 12.4344 14 10.5V8.29067C13.1156 7.9063 12.5 7.02505 12.5 6.00005C12.5 4.6188 13.6187 3.50005 15 3.50005C16.3813 3.50005 17.5 4.6188 17.5 6.00005C17.5 7.02505 16.8844 7.9063 16 8.29067V10.5C16 13.5375 13.5375 16 10.5 16C7.59688 16 5.22188 13.7532 5.01562 10.9032C2.725 10.4438 1 8.42505 1 6.00005V2.22192C1 1.36255 1.55 0.596923 2.36875 0.325047L3.18438 0.0531725C3.70937 -0.121827 4.275 0.162547 4.45 0.684422ZM15 7.00005C15.2652 7.00005 15.5196 6.89469 15.7071 6.70715C15.8946 6.51962 16 6.26526 16 6.00005C16 5.73483 15.8946 5.48048 15.7071 5.29294C15.5196 5.1054 15.2652 5.00005 15 5.00005C14.7348 5.00005 14.4804 5.1054 14.2929 5.29294C14.1054 5.48048 14 5.73483 14 6.00005C14 6.26526 14.1054 6.51962 14.2929 6.70715C14.4804 6.89469 14.7348 7.00005 15 7.00005Z" fill="#2563EB"/>
</g>
<defs>
<clipPath id="clip0_155_640">
<path d="M0 0H18V16H0V0Z" fill="white"/>
</clipPath>
</defs>
</svg>
