<svg width="10" height="16" viewBox="0 0 10 16" fill="none" xmlns="http://www.w3.org/2000/svg">
<g clip-path="url(#clip0_220_147)">
<g clip-path="url(#clip1_220_147)">
<path d="M5 2C4.17188 2 3.5 2.67188 3.5 3.5V8.64062C3.5 9.18125 3.27812 9.6375 3.02187 9.96875C2.69375 10.3938 2.5 10.9219 2.5 11.5C2.5 12.8813 3.61875 14 5 14C6.38125 14 7.5 12.8813 7.5 11.5C7.5 10.9219 7.30625 10.3938 6.97813 9.97188C6.72188 9.64062 6.5 9.18437 6.5 8.64375V3.5C6.5 2.67188 5.82812 2 5 2ZM1.5 3.5C1.5 1.56875 3.06562 0 5 0C6.93437 0 8.5 1.56562 8.5 3.5V8.64062C8.5 8.64375 8.50313 8.65 8.50625 8.65938C8.5125 8.67813 8.53125 8.70937 8.55937 8.74687C9.15 9.50937 9.5 10.4656 9.5 11.5C9.5 13.9844 7.48438 16 5 16C2.51562 16 0.5 13.9844 0.5 11.5C0.5 10.4625 0.85 9.50625 1.44062 8.74687C1.46875 8.70937 1.4875 8.67813 1.49375 8.65938C1.49687 8.65 1.5 8.64375 1.5 8.64062V3.5ZM6.5 11.5C6.5 12.3281 5.82812 13 5 13C4.17188 13 3.5 12.3281 3.5 11.5C3.5 10.8469 3.91875 10.2906 4.5 10.0844V6.5C4.5 6.225 4.725 6 5 6C5.275 6 5.5 6.225 5.5 6.5V10.0844C6.08125 10.2906 6.5 10.8469 6.5 11.5Z" fill="#9CA3AF"/>
</g>
</g>
<defs>
<clipPath id="clip0_220_147">
<rect width="10" height="16" fill="white"/>
</clipPath>
<clipPath id="clip1_220_147">
<path d="M0 0H10V16H0V0Z" fill="white"/>
</clipPath>
</defs>
</svg>
